<svg width="1634" height="700"><g transform="translate(60,20)"><path class="link" d="M 186.75 375 C 93.375 375, 93.375 375, 0 375"></path><path class="link" d="M 373.5 180 C 280.125 180, 280.125 375, 186.75 375"></path><path class="link" d="M 373.5 510 C 280.125 510, 280.125 375, 186.75 375"></path><path class="link" d="M 373.5 570 C 280.125 570, 280.125 375, 186.75 375"></path><path class="link" d="M 560.25 60 C 466.875 60, 466.875 180, 373.5 180"></path><path class="link" d="M 560.25 120 C 466.875 120, 466.875 180, 373.5 180"></path><path class="link" d="M 560.25 180 C 466.875 180, 466.875 180, 373.5 180"></path><path class="link" d="M 560.25 240 C 466.875 240, 466.875 180, 373.5 180"></path><path class="link" d="M 560.25 300 C 466.875 300, 466.875 180, 373.5 180"></path><path class="link" d="M 560.25 420 C 466.875 420, 466.875 510, 373.5 510"></path><path class="link" d="M 560.25 480 C 466.875 480, 466.875 510, 373.5 510"></path><path class="link" d="M 560.25 540 C 466.875 540, 466.875 510, 373.5 510"></path><path class="link" d="M 560.25 600 C 466.875 600, 466.875 510, 373.5 510"></path><path class="link" d="M 747 270 C 653.625 270, 653.625 300, 560.25 300"></path><path class="link" d="M 747 330 C 653.625 330, 653.625 300, 560.25 300"></path><g class="node" transform="translate(0, 375)"><circle class="node" r="10" cursor="pointer" style="fill: rgb(211, 63, 106); stroke-width: 1; stroke: rgb(0, 0, 0); opacity: 0.95;"></circle><text dy=".35em" x="-13" text-anchor="end" style="font-size: 10px;">Agricultural waste</text></g><g class="node" transform="translate(186.75, 375)"><circle class="node" r="10" cursor="pointer" style="fill: rgb(211, 63, 106); stroke-width: 1; stroke: rgb(0, 0, 0); opacity: 0.95;"></circle><text dy=".35em" x="-13" text-anchor="end" style="font-size: 10px;">Bio-conversion</text></g><g class="node" transform="translate(373.5, 180)"><circle class="node" r="10" cursor="pointer" style="fill: rgb(211, 63, 106); stroke-width: 1; stroke: rgb(0, 0, 0); opacity: 0.95;"></circle><text dy=".35em" x="-13" text-anchor="end" style="font-size: 10px;">Gas</text></g><g class="node" transform="translate(373.5, 510)"><circle class="node" r="10" cursor="pointer" style="fill: rgb(211, 63, 106); stroke-width: 1; stroke: rgb(0, 0, 0); opacity: 0.95;"></circle><text dy=".35em" x="-13" text-anchor="end" style="font-size: 10px;">Liquid</text></g><g class="node" transform="translate(373.5, 570)"><circle class="node" r="10" cursor="pointer" style="fill: rgb(211, 63, 106); stroke-width: 1; stroke: rgb(0, 0, 0); opacity: 0.95;"></circle><text dy=".35em" x="13" text-anchor="start" style="font-size: 10px;">Solid</text></g><g class="node" transform="translate(560.25, 60)"><circle class="node" r="10" cursor="pointer" style="fill: rgb(211, 63, 106); stroke-width: 1; stroke: rgb(0, 0, 0); opacity: 0.95;"></circle><text dy=".35em" x="13" text-anchor="start" style="font-size: 10px;">Agriculture</text></g><g class="node" transform="translate(560.25, 120)"><circle class="node" r="10" cursor="pointer" style="fill: rgb(211, 63, 106); stroke-width: 1; stroke: rgb(0, 0, 0); opacity: 0.95;"></circle><text dy=".35em" x="13" text-anchor="start" style="font-size: 10px;">Heating and cooling - commercial</text></g><g class="node" transform="translate(560.25, 180)"><circle class="node" r="10" cursor="pointer" style="fill: rgb(211, 63, 106); stroke-width: 1; stroke: rgb(0, 0, 0); opacity: 0.95;"></circle><text dy=".35em" x="13" text-anchor="start" style="font-size: 10px;">Industry</text></g><g class="node" transform="translate(560.25, 240)"><circle class="node" r="10" cursor="pointer" style="fill: rgb(211, 63, 106); stroke-width: 1; stroke: rgb(0, 0, 0); opacity: 0.95;"></circle><text dy=".35em" x="13" text-anchor="start" style="font-size: 10px;">Losses</text></g><g class="node" transform="translate(560.25, 300)"><circle class="node" r="10" cursor="pointer" style="fill: rgb(211, 63, 106); stroke-width: 1; stroke: rgb(0, 0, 0); opacity: 0.95;"></circle><text dy=".35em" x="-13" text-anchor="end" style="font-size: 10px;">Thermal generation</text></g><g class="node" transform="translate(560.25, 420)"><circle class="node" r="10" cursor="pointer" style="fill: rgb(211, 63, 106); stroke-width: 1; stroke: rgb(0, 0, 0); opacity: 0.95;"></circle><text dy=".35em" x="13" text-anchor="start" style="font-size: 10px;">Domestic aviation</text></g><g class="node" transform="translate(560.25, 480)"><circle class="node" r="10" cursor="pointer" style="fill: rgb(211, 63, 106); stroke-width: 1; stroke: rgb(0, 0, 0); opacity: 0.95;"></circle><text dy=".35em" x="13" text-anchor="start" style="font-size: 10px;">International aviation</text></g><g class="node" transform="translate(560.25, 540)"><circle class="node" r="10" cursor="pointer" style="fill: rgb(211, 63, 106); stroke-width: 1; stroke: rgb(0, 0, 0); opacity: 0.95;"></circle><text dy=".35em" x="13" text-anchor="start" style="font-size: 10px;">International shipping</text></g><g class="node" transform="translate(560.25, 600)"><circle class="node" r="10" cursor="pointer" style="fill: rgb(211, 63, 106); stroke-width: 1; stroke: rgb(0, 0, 0); opacity: 0.95;"></circle><text dy=".35em" x="13" text-anchor="start" style="font-size: 10px;">National navigation</text></g><g class="node" transform="translate(747, 270)"><circle class="node" r="10" cursor="pointer" style="fill: rgb(211, 63, 106); stroke-width: 1; stroke: rgb(0, 0, 0); opacity: 0.95;"></circle><text dy=".35em" x="-13" text-anchor="end" style="font-size: 10px;">District heating</text></g><g class="node" transform="translate(747, 330)"><circle class="node" r="10" cursor="pointer" style="fill: rgb(211, 63, 106); stroke-width: 1; stroke: rgb(0, 0, 0); opacity: 0.95;"></circle><text dy=".35em" x="-13" text-anchor="end" style="font-size: 10px;">Electricity grid</text></g></g></svg>